<?xml version="1.0" encoding="UTF-8"?>
<svg version="1.1" xmlns="http://www.w3.org/2000/svg" width="512" height="512">
<path d="M0 0 C1.01223633 0.17692383 2.02447266 0.35384766 3.06738281 0.53613281 C35.46206217 6.39205518 71.83342892 16.0044891 95 41 C95.62648438 41.63292969 96.25296875 42.26585937 96.8984375 42.91796875 C106.99488379 53.52111402 110.33499823 65.62354875 110.24050903 79.96583557 C110.24307231 81.41069719 110.24307231 81.41069719 110.24568737 82.88474792 C110.24896391 86.09064169 110.23800888 89.296323 110.22705078 92.50219727 C110.22648627 94.80891413 110.22680401 97.11563136 110.22793579 99.42234802 C110.22850875 105.66958135 110.21676358 111.91673762 110.20278788 118.16395307 C110.19027107 124.69824153 110.18910926 131.23253184 110.18673706 137.76683044 C110.18156361 148.7294142 110.16874475 159.69197101 110.15087891 170.65454102 C110.13250177 181.94262553 110.11835426 193.23070236 110.10986328 204.51879883 C110.10933783 205.21539128 110.10881239 205.91198374 110.10827102 206.62968505 C110.10566081 210.12452197 110.10313343 213.61935894 110.10064721 217.11419594 C110.07993673 246.07614927 110.04458113 275.03807396 110 304 C110.8566091 303.99539104 111.71321819 303.99078207 112.59578514 303.98603344 C133.46223591 303.87549547 154.32863604 303.79281482 175.19531822 303.74093914 C185.28640651 303.71518406 195.37729908 303.68008513 205.46826172 303.62280273 C214.26603538 303.57288517 223.06366724 303.54068939 231.86157858 303.52955753 C236.5178258 303.5230529 241.17366746 303.50782163 245.82978439 303.47134972 C250.21783329 303.43725807 254.60531192 303.42697343 258.99348068 303.43446159 C260.59864406 303.4330929 262.20382771 303.42323888 263.80887604 303.40397263 C273.70207408 303.29110519 282.29783008 303.726253 289.89821434 310.75559521 C295.24249334 316.37804155 297.37230467 322.44345447 297.38768005 330.1211853 C297.39575836 331.14356149 297.39575836 331.14356149 297.40399987 332.18659174 C297.41821421 334.45189376 297.41119226 336.71660601 297.40405273 338.98193359 C297.40975979 340.61366747 297.41672535 342.24539735 297.42485046 343.87712097 C297.44276126 348.29664909 297.44161726 352.71597842 297.43590808 357.1355319 C297.43281282 360.83073239 297.43891252 364.52589488 297.44494683 368.22108996 C297.45898399 376.94202194 297.45743786 385.66285595 297.44604492 394.38378906 C297.43456787 403.36737755 297.44863425 412.35066735 297.4754414 421.33421648 C297.49762638 429.05929644 297.50422937 436.78428284 297.49836498 444.50939238 C297.49500049 449.11789009 297.49737653 453.72619642 297.51461601 458.33466721 C297.53012746 462.67027867 297.5260833 467.00544917 297.50731087 471.34104347 C297.50363639 472.92724971 297.50670003 474.51348892 297.51719666 476.09966469 C297.57632217 485.77726239 297.2977425 493.88177939 290.8515625 501.55859375 C290.11679687 502.17863281 289.38203125 502.79867188 288.625 503.4375 C287.89539063 504.07558594 287.16578125 504.71367187 286.4140625 505.37109375 C280.49635076 509.36411284 274.60726829 509.28958752 267.72744751 509.26742554 C266.69482674 509.27195665 265.66220597 509.27648776 264.59829366 509.28115618 C261.13921405 509.29381336 257.68029161 509.29217894 254.22119141 509.29052734 C251.74070534 509.29651172 249.26022113 509.30331705 246.77973938 509.31088257 C240.74194177 509.32672209 234.70420593 509.3329913 228.66639329 509.33410732 C223.75765555 509.33505854 218.84893067 509.33917252 213.94019699 509.34550858 C200.01576997 509.36311544 186.09137375 509.3723482 172.16693552 509.37084763 C171.04161201 509.37072776 171.04161201 509.37072776 169.89355469 509.37060547 C168.76685362 509.37048283 168.76685362 509.37048283 167.61739092 509.37035771 C155.44342115 509.36954475 143.26957508 509.38868626 131.09564109 509.4168822 C118.58842644 509.44562098 106.08127211 509.45942198 93.5740236 509.45769465 C86.55496836 509.45703114 79.53604283 509.46250651 72.51701736 509.48405075 C65.91616799 509.50418205 59.31554571 509.50357872 52.71466637 509.48901749 C50.29273135 509.4869245 47.87077932 509.49165928 45.44887352 509.5037384 C42.14109945 509.51916667 38.83427333 509.50989773 35.52651978 509.49447632 C34.56950531 509.50476344 33.61249084 509.51505057 32.62647593 509.52564943 C25.31824681 509.45042161 20.04023836 507.69760832 14.5390625 502.81640625 C13.90742188 502.07261719 13.27578125 501.32882812 12.625 500.5625 C11.97789062 499.82128906 11.33078125 499.08007812 10.6640625 498.31640625 C5.36511713 490.94017479 5.85922737 482.39035049 5.90234375 473.6953125 C5.90446617 472.07663773 5.90446617 472.07663773 5.90663147 470.42526245 C5.91221156 466.99181298 5.92476045 463.55842964 5.9375 460.125 C5.94251757 457.79166761 5.94708003 455.4583342 5.95117188 453.125 C5.96217447 447.41664425 5.97889279 441.70832685 6 436 C5.08863281 436.19335938 4.17726562 436.38671875 3.23828125 436.5859375 C-15.29881605 440.37297673 -33.80413431 441.36742152 -52.6875 441.25 C-53.64688477 441.24556885 -54.60626953 441.2411377 -55.59472656 441.23657227 C-104.84701018 440.97111634 -162.10079441 433.60739306 -199.71875 398.37109375 C-210.4419294 387.22559735 -215.78427696 375.41275377 -215.63491821 359.95155334 C-215.64271817 358.69273848 -215.65051812 357.43392361 -215.65855443 356.13696283 C-215.67924907 352.67725611 -215.66919336 349.21824713 -215.65362334 345.75853932 C-215.64224141 342.01404446 -215.65980627 338.26966389 -215.67352295 334.52519226 C-215.69568809 327.20308742 -215.69098415 319.88123969 -215.67645974 312.55912501 C-215.66514004 306.60460058 -215.66364838 300.65014789 -215.66907883 294.69561577 C-215.66984499 293.84618378 -215.67061116 292.9967518 -215.67140054 292.12157945 C-215.67299927 290.39563634 -215.67462034 288.66969326 -215.6762635 286.9437502 C-215.69050152 270.78134423 -215.67415934 254.61908035 -215.64726166 238.45669769 C-215.62492868 224.60883735 -215.62880199 210.76118664 -215.65185547 196.91333008 C-215.67865492 180.80793719 -215.68912417 164.70266868 -215.67379415 148.5972566 C-215.67220151 146.87757109 -215.67062966 145.15788555 -215.66907883 143.4382 C-215.66830745 142.59222314 -215.66753607 141.74624629 -215.66674132 140.87463378 C-215.66243643 134.93240926 -215.66968473 128.99026407 -215.68147659 123.04805183 C-215.69554647 115.79895545 -215.69160808 108.55012952 -215.66507287 101.30106384 C-215.65199396 97.60715764 -215.64667968 93.91370122 -215.66331863 90.21979904 C-215.68113024 86.20462338 -215.65976629 82.19056865 -215.63491821 78.1754303 C-215.64607182 77.0230706 -215.65722543 75.8707109 -215.66871703 74.68343121 C-215.51258518 61.61487465 -210.77813798 51.51373614 -202 42 C-201.35933594 41.29101562 -200.71867188 40.58203125 -200.05859375 39.8515625 C-176.369394 14.87022458 -137.78288138 5.26804812 -105 0 C-104.13665039 -0.15098145 -103.27330078 -0.30196289 -102.38378906 -0.45751953 C-69.7559674 -6.01540095 -32.57692692 -5.75804144 0 0 Z " fill="#000101" transform="translate(215,3)"/>
<path d="M0 0 C0.82290527 0.18788086 1.64581055 0.37576172 2.49365234 0.56933594 C26.17080749 6.13517882 55.29352389 17.27294219 69.01091003 38.56945801 C73.2794536 46.48976739 72.55973011 55.1475662 72.49609375 63.87890625 C72.49624897 65.61807821 72.49774178 67.35725051 72.50050354 69.09642029 C72.50188269 72.72841827 72.48940978 76.36001902 72.46655273 79.99194336 C72.43814828 84.63093053 72.44091768 89.26925959 72.45364285 93.90829563 C72.46062024 97.49527032 72.45278763 101.08209473 72.44038582 104.66905022 C72.43589282 106.3789506 72.43551557 108.08886724 72.43945122 109.798769 C72.44238437 112.19373406 72.4257584 114.58781336 72.40405273 116.98266602 C72.41080521 118.02637611 72.41080521 118.02637611 72.41769409 119.09117126 C72.26954086 129.00395552 67.57479 135.95155446 61 143 C38.89837618 164.23179247 5.36003498 172.48280344 -24.02294922 176.578125 C-26.90835322 176.98701282 -29.78290956 177.44389763 -32.66015625 177.90625 C-75.51900424 184.35757338 -121.93287616 180.63390204 -163 167 C-164.05695068 166.65630371 -164.05695068 166.65630371 -165.13525391 166.30566406 C-183.31324069 160.31158275 -203.55055639 150.72306124 -214 134 C-214.3655751 133.42375381 -214.73115021 132.84750763 -215.10780334 132.25379944 C-219.23773892 124.5154842 -218.55985145 116.07558137 -218.49609375 107.55859375 C-218.49624898 105.86426227 -218.49774199 104.16993043 -218.50050354 102.4756012 C-218.50188246 98.9377559 -218.48941382 95.4003185 -218.46655273 91.86254883 C-218.43814772 87.34462453 -218.44091812 82.82737599 -218.45364285 78.30940151 C-218.46062139 74.81507163 -218.45278635 71.32089595 -218.44038582 67.82658577 C-218.43589397 66.16134293 -218.43551454 64.4960834 -218.43945122 62.83083916 C-218.44238554 60.49813162 -218.42575312 58.16633246 -218.40405273 55.83374023 C-218.40855438 55.15663498 -218.41305603 54.47952972 -218.41769409 53.78190613 C-218.26973597 44.13356203 -213.53749432 35.84916059 -207.06640625 28.93359375 C-183.14520916 6.50472823 -146.55827193 -2.140587 -115 -6 C-114.20561523 -6.10296387 -113.41123047 -6.20592773 -112.59277344 -6.31201172 C-75.0576246 -10.99835279 -36.76812141 -8.46358093 0 0 Z " fill="#01A7F2" transform="translate(235,25)"/>
<path d="M0 0 C0.9979855 -0.00709439 1.99597099 -0.01418877 3.02419847 -0.02149814 C6.36625113 -0.0390917 9.70714295 -0.02096554 13.04917908 -0.00291443 C15.44586721 -0.00805266 17.84255156 -0.0153332 20.23922729 -0.02459717 C26.07159047 -0.0412058 31.9035825 -0.0344696 37.7359348 -0.01650894 C42.47595241 -0.00247625 47.21587906 0.00140844 51.95591545 -0.00195122 C52.63084704 -0.00242866 53.30577863 -0.0029061 54.00116269 -0.00339801 C55.37231285 -0.00442435 56.74346299 -0.00547971 58.11461311 -0.00656378 C70.23479591 -0.01512838 82.3548169 0.001537 94.47496033 0.03126526 C106.23446955 0.06010854 117.99374574 0.06718292 129.75328064 0.05177307 C142.56171414 0.0350117 155.37003703 0.03097551 168.17847341 0.04848343 C169.54423899 0.05032781 170.91000458 0.05216253 172.27577019 0.0539875 C173.28372431 0.05535564 173.28372431 0.05535564 174.31204115 0.05675141 C179.04667009 0.06235673 183.78124503 0.05904974 188.51587105 0.05244255 C194.88778017 0.04479178 201.25935289 0.05686686 207.63120461 0.08429146 C209.97214509 0.0911887 212.31311692 0.09125902 214.65405655 0.08407593 C217.84469992 0.07541236 221.03429774 0.0912858 224.22485352 0.11352539 C225.6209552 0.10116424 225.6209552 0.10116424 227.04526097 0.08855337 C231.24586116 0.14275417 233.4662333 0.26400519 237.10044003 2.53535557 C240.34199812 6.01703848 240.17891975 8.18943556 240.19610596 12.87130737 C240.19978265 13.51877322 240.20345933 14.16623906 240.20724744 14.83332509 C240.21830053 17.01275709 240.22213084 19.19214143 240.22593689 21.37159729 C240.23220029 22.9302638 240.23884698 24.4889288 240.24584961 26.04759216 C240.26327018 30.2894045 240.27381414 34.53120557 240.28205514 38.77304482 C240.28720283 41.42209523 240.29327865 44.07114212 240.29956627 46.72019005 C240.3186209 55.00527513 240.33285172 63.29035127 240.34117824 71.57545406 C240.3509541 81.14518409 240.37728152 90.71468303 240.41767913 100.28433162 C240.4478186 107.67717224 240.46264503 115.06994653 240.46595925 122.46284741 C240.46831213 126.88017501 240.47730332 131.2972558 240.50242043 135.71451759 C240.52566852 139.87026829 240.5299477 144.02560911 240.51965904 148.18140793 C240.51916278 149.70641504 240.52550992 151.2314421 240.53921509 152.75638771 C240.5568883 154.83945763 240.54985258 156.92104928 240.53668213 159.00411987 C240.53907048 160.16943395 240.54145884 161.33474802 240.54391956 162.53537464 C239.94410739 166.28318344 238.6723655 167.93714746 236.04893494 170.62818909 C233.77276505 171.76627403 232.51895591 171.75819176 229.99055004 171.76799679 C228.70905426 171.77653365 228.70905426 171.77653365 227.40166968 171.78524297 C226.45762363 171.78642285 225.51357758 171.78760273 224.54092407 171.78881836 C223.54227272 171.79390618 222.54362137 171.798994 221.51470786 171.80423599 C218.14680518 171.82001297 214.77892402 171.82849929 211.41099548 171.83692932 C209.00504925 171.84646341 206.59910441 171.85635437 204.19316101 171.86657715 C196.95773171 171.89529494 189.72229615 171.91504936 182.48683211 171.93196949 C180.44384258 171.93676362 178.40085359 171.94174704 176.35786462 171.94677472 C163.67579803 171.97774275 150.99372691 172.00443275 138.31163311 172.0211935 C135.37356241 172.02514311 132.4354918 172.02914609 129.49742126 172.03321838 C128.40203417 172.03473093 128.40203417 172.03473093 127.28451804 172.03627402 C115.45094268 172.05328624 103.61757625 172.09440111 91.78410294 172.14524137 C79.63977282 172.19698879 67.49555022 172.22613185 55.35111076 172.23339039 C48.53040868 172.2380561 41.71004884 172.25284287 34.8894558 172.29313469 C28.47494353 172.33098134 22.06085473 172.33844718 15.64624023 172.32512856 C13.28914364 172.32518269 10.93202185 172.33555318 8.57502174 172.35688019 C5.36193252 172.38440425 2.15100073 172.37512228 -1.06210327 172.35644531 C-1.99945716 172.37324024 -2.93681104 172.39003517 -3.90256959 172.40733904 C-9.92848485 172.3195316 -9.92848485 172.3195316 -12.64716023 170.4814989 C-16.00772483 166.89152593 -16.57973345 163.62676394 -16.5927124 158.86608887 C-16.60121792 158.21112177 -16.60972344 157.55615467 -16.6184867 156.88134009 C-16.64066459 154.6999636 -16.62734973 152.52030799 -16.61390686 150.33888245 C-16.62232438 148.76976302 -16.63285143 147.20065371 -16.64532471 145.63156128 C-16.67235046 141.37947056 -16.6676788 137.1279671 -16.65562415 132.8758285 C-16.64848828 129.32442573 -16.65699493 125.77313126 -16.66552955 122.22173697 C-16.68547332 113.84467044 -16.67992076 105.46788937 -16.65785217 97.09083557 C-16.63547431 88.44955517 -16.65310589 79.80902127 -16.69090146 71.16781133 C-16.72212676 63.74511045 -16.73005444 56.32264076 -16.71894771 48.89988238 C-16.71245882 44.46802644 -16.71447171 40.03660155 -16.73827171 35.60479546 C-16.75950563 31.43888916 -16.75157099 27.27403782 -16.72117805 23.10819817 C-16.71484483 21.57998392 -16.71872575 20.05168795 -16.73358917 18.52353287 C-16.75225097 16.43557976 -16.73389044 14.35108583 -16.70623779 12.26330566 C-16.70527446 11.09581252 -16.70431112 9.92831938 -16.7033186 8.72544765 C-15.87366579 5.30951252 -14.72821285 3.62638687 -11.87029308 1.54990882 C-8.06418446 -0.27799562 -4.14786138 -0.0528732 0 0 Z " fill="#FDDB00" transform="translate(254.95106506347656,323.37181091308594)"/>
<path d="M0 0 C6.76322091 6.49269208 11.55583245 12.97853443 11.875 22.4375 C11.92493401 31.47989849 9.25169612 38.24906355 3.19921875 45.09375 C-2.42173632 50.47265437 -8.58331802 54.20579894 -15.5625 57.5625 C-16.42488281 57.99175781 -17.28726563 58.42101562 -18.17578125 58.86328125 C-33.98281809 66.4272411 -50.39034838 69.64892993 -67.5625 72.5625 C-68.56780762 72.75303955 -69.57311523 72.9435791 -70.60888672 73.13989258 C-81.42528764 74.99104375 -92.25389434 74.89969873 -103.19970703 74.87817383 C-106.52800871 74.87503255 -109.8554025 74.89847657 -113.18359375 74.92382812 C-148.21807227 75.02694331 -189.77357177 69.75603145 -217.31640625 45.90234375 C-224.70620267 38.20410366 -227.0062708 30.6776442 -226.8984375 20.20703125 C-226.14390607 12.02124263 -221.89252484 6.0016507 -215.98046875 0.5 C-202.90785759 -9.97498406 -187.84884282 -15.83382723 -171.80615234 -19.8671875 C-169.72355253 -20.39656216 -167.65322149 -20.95917244 -165.58203125 -21.53125 C-117.30555395 -34.42179626 -39.89522122 -33.99356127 0 0 Z " fill="#0276BA" transform="translate(269.5625,61.4375)"/>
<path d="M0 0 C0.54663803 0.41182526 1.09327606 0.82365051 1.65647888 1.24795532 C2.37497513 1.78826385 3.09347137 2.32857239 3.83374023 2.88525391 C4.54537827 3.42082916 5.2570163 3.95640442 5.99021912 4.50820923 C55.37140742 41.16215573 128.01072462 47.12328177 187.27539062 38.70483398 C190.8547964 38.16148094 194.42775092 37.58841834 198 37 C199.06895508 36.82919922 200.13791016 36.65839844 201.23925781 36.48242188 C212.40776707 34.67705271 223.19887015 32.3904291 234 29 C235.05960938 28.70480469 236.11921875 28.40960938 237.2109375 28.10546875 C245.94985279 25.61921561 253.90398135 22.05558784 262 18 C263.12792969 17.44183594 264.25585938 16.88367188 265.41796875 16.30859375 C272.36024411 12.73377812 278.43750988 8.64593723 284.5390625 3.8203125 C287 2 287 2 290 1 C290.12757048 7.51020197 290.21467172 14.02007749 290.2746582 20.53125 C290.29968484 22.74263555 290.3337169 24.95393937 290.37719727 27.16503906 C290.43837176 30.35762791 290.46632914 33.54911613 290.48828125 36.7421875 C290.51408768 37.71864227 290.5398941 38.69509705 290.56648254 39.70114136 C290.57016569 48.87080507 287.11632223 56.47682367 280.91015625 63.22265625 C245.83982539 95.8545592 192.35632659 101.3992332 146.73291016 101.31567383 C143.13543461 101.31250918 139.53878142 101.33610487 135.94140625 101.36132812 C101.26077637 101.45522327 65.08376206 96.20123356 34 80 C33.00871094 79.50757813 32.01742187 79.01515625 30.99609375 78.5078125 C24.33283086 75.07887332 18.64225908 70.91765389 13 66 C12.02546875 65.18595703 12.02546875 65.18595703 11.03125 64.35546875 C4.1710138 58.17222954 0.07392601 50.85313872 -0.48242188 41.61816406 C-0.66325687 35.32544143 -0.52465155 29.0419536 -0.375 22.75 C-0.34485584 20.54040101 -0.31748793 18.33076231 -0.29296875 16.12109375 C-0.22734481 10.74651913 -0.12735251 5.37344789 0 0 Z " fill="#01A8F2" transform="translate(17,180)"/>
<path d="M0 0 C2.99178175 1.9834731 5.96044886 3.9713335 8.8671875 6.078125 C31.6362824 22.51918573 57.9260747 30.34808071 85.1875 35.6875 C86.21939453 35.89004395 87.25128906 36.09258789 88.31445312 36.30126953 C91.53716221 36.90920348 94.76440805 37.46495292 98 38 C99.10657959 38.19126465 100.21315918 38.3825293 101.35327148 38.57958984 C113.79716649 40.45003969 126.2739009 40.30231253 138.83374023 40.26074219 C142.66210958 40.25007077 146.49000471 40.26066076 150.31835938 40.2734375 C169.30309488 40.28541617 187.88764083 39.34182264 206.5625 35.75 C207.70178955 35.53239014 208.8410791 35.31478027 210.01489258 35.09057617 C236.72975926 29.80312204 265.05960802 20.37506672 286.109375 2.56640625 C288 1 288 1 290 0 C290 16.5 290 33 290 50 C285.42382812 50.01417969 280.84765625 50.02835937 276.1328125 50.04296875 C273.21607046 50.06304998 270.29948263 50.0845898 267.3828125 50.11132812 C262.76361138 50.1535371 258.14480164 50.19063779 253.52539062 50.19555664 C249.79674299 50.1998673 246.06897502 50.22855506 242.34060287 50.27343178 C240.9254661 50.2863193 239.51022356 50.29074578 238.09503555 50.28615379 C228.27529626 50.26173521 220.28891319 51.14494675 212.83279419 57.98942566 C205.4592092 65.57535251 205.65049188 73.84187059 205.375 83.9375 C205.31699219 85.67870117 205.31699219 85.67870117 205.2578125 87.45507812 C205.16404613 90.30323169 205.07834083 93.15138738 205 96 C184.61079719 100.00836228 164.38841203 101.41244491 143.625 101.375 C142.58461578 101.37512085 141.54423157 101.3752417 140.47232056 101.37536621 C122.66065 101.34607434 105.55123656 100.13315029 88 97 C87.09733398 96.85046875 86.19466797 96.7009375 85.26464844 96.546875 C58.26632028 92.03147517 23.62759013 81.6518791 6 59 C2.38139701 52.99930158 -0.13336471 47.47783557 -0.11352539 40.41503906 C-0.11344986 39.51440735 -0.11337433 38.61377563 -0.11329651 37.68585205 C-0.10813522 36.72217712 -0.10297394 35.7585022 -0.09765625 34.765625 C-0.0962413 33.77246277 -0.09482635 32.77930054 -0.09336853 31.75604248 C-0.08777588 28.58733088 -0.0752247 25.41869021 -0.0625 22.25 C-0.05748405 20.10026144 -0.05292131 17.95052177 -0.04882812 15.80078125 C-0.03780886 10.53383001 -0.021078 5.26692007 0 0 Z " fill="#01A7F2" transform="translate(17,257)"/>
<path d="M0 0 C2.96961624 1.76030045 5.75051347 3.52177645 8.4375 5.6875 C30.81636227 22.61832464 58.810124 30.85261715 86 36 C87.00708008 36.19754883 88.01416016 36.39509766 89.05175781 36.59863281 C106.82787741 39.93951533 124.40006491 40.37163223 142.4375 40.375 C143.53185364 40.37690338 144.62620728 40.37880676 145.75372314 40.38076782 C157.36271422 40.37848323 168.90190831 40.08108237 180.47265625 39.1015625 C181.38728134 39.02457123 182.30190643 38.94757996 183.24424744 38.86825562 C188.51847375 38.37278868 193.62110713 37.55348903 198.79197693 36.39877319 C201 36 201 36 205 36 C205 52.83 205 69.66 205 87 C195.64392019 89.15909534 187.23673478 90.79334146 177.8125 91.6875 C177.15581329 91.75003967 176.49912659 91.81257935 175.82254028 91.87701416 C140.85315698 95.12403326 103.31250916 94.38046534 69.55859375 84.07421875 C67.1083149 83.33456267 64.64007261 82.65275506 62.16015625 82.01953125 C45.5646008 77.72329118 27.96622929 70.4367621 15 59 C14.1853125 58.28199219 13.370625 57.56398438 12.53125 56.82421875 C6.57550459 51.2262048 1.74040577 45.12858545 0 37 C-0.08363974 34.16308375 -0.11621679 31.35182011 -0.09765625 28.515625 C-0.0962413 27.70003113 -0.09482635 26.88443726 -0.09336853 26.04412842 C-0.08778303 23.44604788 -0.07523321 20.84805437 -0.0625 18.25 C-0.05748312 16.48567833 -0.05292054 14.72135531 -0.04882812 12.95703125 C-0.03781835 8.63798744 -0.02056369 4.31900846 0 0 Z " fill="#01A7F2" transform="translate(17,334)"/>
<path d="M0 0 C6.76322091 6.49269208 11.55583245 12.97853443 11.875 22.4375 C11.92493401 31.47989849 9.25169612 38.24906355 3.19921875 45.09375 C-2.42173632 50.47265437 -8.58331802 54.20579894 -15.5625 57.5625 C-16.42488281 57.99175781 -17.28726563 58.42101562 -18.17578125 58.86328125 C-33.98281809 66.4272411 -50.39034838 69.64892993 -67.5625 72.5625 C-68.56780762 72.75303955 -69.57311523 72.9435791 -70.60888672 73.13989258 C-81.42528764 74.99104375 -92.25389434 74.89969873 -103.19970703 74.87817383 C-106.52800871 74.87503255 -109.8554025 74.89847657 -113.18359375 74.92382812 C-148.21807227 75.02694331 -189.77357177 69.75603145 -217.31640625 45.90234375 C-224.70620267 38.20410366 -227.0062708 30.6776442 -226.8984375 20.20703125 C-226.14390607 12.02124263 -221.89252484 6.0016507 -215.98046875 0.5 C-202.90785759 -9.97498406 -187.84884282 -15.83382723 -171.80615234 -19.8671875 C-169.72355253 -20.39656216 -167.65322149 -20.95917244 -165.58203125 -21.53125 C-117.30555395 -34.42179626 -39.89522122 -33.99356127 0 0 Z M-206.00390625 14.8515625 C-208.22061412 17.28494107 -209.41262712 19.35443372 -209.8203125 22.640625 C-209.46496298 28.45163487 -207.6932572 31.66597498 -203.359375 35.5234375 C-180.32918694 52.31360254 -149.12340705 57.56140053 -121.19140625 57.80078125 C-120.23872864 57.81043915 -119.28605103 57.82009705 -118.30450439 57.83004761 C-115.2446294 57.85471047 -112.18496345 57.86742057 -109.125 57.875 C-107.55871353 57.87942612 -107.55871353 57.87942612 -105.96078491 57.88394165 C-74.59652326 57.90409109 -33.57885579 55.6121806 -9.015625 33.23828125 C-5.99041651 29.74953275 -4.91876202 26.38344324 -5.06640625 21.7109375 C-6.46360837 15.66006219 -12.01093778 11.68253208 -17 8.5 C-65.86998683 -18.54384234 -161.87266259 -24.23348905 -206.00390625 14.8515625 Z " fill="#000203" transform="translate(269.5625,61.4375)"/>
<path d="M0 0 C7.27394525 6.02552733 11.71119298 13.73277578 13.375 23 C13.63193062 26.30610186 13.63271449 29.59154892 13.60546875 32.90625 C13.60501053 33.83038696 13.60455231 34.75452393 13.6040802 35.70666504 C13.6010754 37.64967136 13.59324271 39.59267566 13.58081055 41.53564453 C13.56255375 44.49129888 13.56030126 47.44663885 13.56054688 50.40234375 C13.5556304 52.29948184 13.54980152 54.19661784 13.54296875 56.09375 C13.54185593 56.96793579 13.5407431 57.84212158 13.53959656 58.74279785 C13.50923125 62.71449386 13.34819069 66.53383247 12.76342773 70.46533203 C11.99591484 73.99256631 11.99591484 73.99256631 13.9921875 76.4609375 C14.73726563 77.09257812 15.48234375 77.72421875 16.25 78.375 C21.2343482 82.73413379 21.2343482 82.73413379 21.6875 86.8125 C21.29145896 90.85211856 20.38658942 92.29729155 17.375 95 C14.125 96.25 14.125 96.25 10.375 96 C8.10566198 94.32026569 6.20720732 92.5208713 4.26953125 90.46875 C2.50948105 88.76355733 2.50948105 88.76355733 0.37890625 89.16015625 C-1.63862235 90.00570917 -3.56867153 90.90978505 -5.5 91.9375 C-13.81985808 96.12790471 -21.56089936 97.62769243 -30.75390625 95.16015625 C-40.5239703 91.45426989 -47.69608296 85.70622531 -52.65234375 76.46875 C-55.34994715 69.62182089 -55.9426642 63.26014463 -55.9609375 55.98046875 C-55.9675943 55.04125076 -55.9742511 54.10203278 -55.98110962 53.13435364 C-55.99118464 51.15689029 -55.99592825 49.17939329 -55.99560547 47.2019043 C-55.99997261 44.20628748 -56.03633088 41.2121532 -56.07421875 38.21679688 C-56.15165367 25.19944985 -55.41771634 14.48218204 -46.75390625 4.078125 C-34.09621128 -8.2776433 -14.58340224 -10.20348781 0 0 Z " fill="#040300" transform="translate(396.625,365)"/>
<path d="M0 0 C30.9990268 -0.09122722 61.99801815 -0.16202669 92.9971473 -0.20426132 C96.65589465 -0.20926422 100.31464173 -0.2144415 103.97338867 -0.21972656 C104.70178712 -0.2207758 105.43018558 -0.22182505 106.18065671 -0.22290608 C117.97873102 -0.24031693 129.77672747 -0.27185833 141.57475557 -0.30861118 C153.67833768 -0.34600176 165.78187897 -0.36823185 177.88551646 -0.37635398 C185.35567533 -0.38184569 192.82561411 -0.39919792 200.29570524 -0.43166587 C206.02134075 -0.45528583 211.74683487 -0.4578246 217.47250938 -0.45243073 C219.82314409 -0.45353352 222.17378693 -0.46152121 224.5243721 -0.4768219 C227.72840548 -0.49665948 230.93148947 -0.49196135 234.13554382 -0.48101807 C235.070371 -0.49266943 236.00519818 -0.5043208 236.96835345 -0.51632524 C241.18159449 -0.47730335 243.40711075 -0.36983667 247.05402851 1.90506363 C250.29098419 5.38980954 250.12998557 7.56145351 250.14717102 12.24311829 C250.15084771 12.89058413 250.1545244 13.53804998 250.1583125 14.205136 C250.16936559 16.384568 250.1731959 18.56395235 250.17700195 20.7434082 C250.18326535 22.30207471 250.18991204 23.86073972 250.19691467 25.41940308 C250.21433524 29.66121542 250.22487921 33.90301648 250.2331202 38.14485574 C250.23826789 40.79390615 250.24434371 43.44295303 250.25063133 46.09200096 C250.26968596 54.37708604 250.28391678 62.66216219 250.2922433 70.94726497 C250.30201917 80.516995 250.32834658 90.08649395 250.36874419 99.65614253 C250.39888366 107.04898315 250.41371009 114.44175745 250.41702431 121.83465832 C250.4193772 126.25198592 250.42836838 130.66906671 250.45348549 135.08632851 C250.47673358 139.2420792 250.48101277 143.39742002 250.47072411 147.55321884 C250.47022784 149.07822595 250.47657498 150.60325302 250.49028015 152.12819862 C250.50795337 154.21126855 250.50091764 156.2928602 250.48774719 158.37593079 C250.49013555 159.54124486 250.4925239 160.70655893 250.49498463 161.90718555 C249.89517246 165.65499435 248.62343056 167.30895837 246 170 C243.71571088 171.14214456 242.46530334 171.12434387 239.92764854 171.12304783 C239.07023453 171.12503888 238.21282052 171.12702993 237.32942426 171.12908131 C236.38196761 171.12616847 235.43451096 171.12325563 234.45834351 171.12025452 C233.45616433 171.12110894 232.45398515 171.12196337 231.42143691 171.12284368 C228.04184506 171.12449918 224.66230216 171.11897596 221.28271484 171.11352539 C218.86865744 171.11324351 216.45459995 171.11340127 214.0405426 171.1139679 C208.83220313 171.11419608 203.62387485 171.11134796 198.41553879 171.10573006 C190.88510305 171.09761272 183.35467337 171.0949996 175.82423373 171.09374207 C163.60742843 171.09155191 151.3906298 171.08489282 139.17382812 171.07543945 C127.30436232 171.06626439 115.43489832 171.05918401 103.56542969 171.05493164 C102.83414122 171.05466892 102.10285275 171.05440619 101.34940402 171.05413551 C97.68084784 171.0528305 94.01229166 171.05156678 90.34373546 171.05032361 C59.89581886 171.03995214 29.44791036 171.02226063 -1 171 C-1 170.67 -1 170.34 -1 170 C75.56 169.67 152.12 169.34 231 169 C232.18975795 165.43072615 232.12478155 162.20053028 232.09765625 158.48828125 C232.0962413 157.76005661 232.09482635 157.03183197 232.09336853 156.28153992 C232.08777659 153.95848461 232.07522562 151.63552612 232.0625 149.3125 C232.05748396 147.73632952 232.05292123 146.16015752 232.04882812 144.58398438 C232.0378098 140.72261902 232.02055074 136.86132592 232 133 C231.32130859 133.64904297 230.64261719 134.29808594 229.94335938 134.96679688 C226.31942738 137.47012349 224.27800064 137.51535272 219.90625 137.53125 C219.23710571 137.5350769 218.56796143 137.53890381 217.87854004 137.54284668 C216.46995531 137.54555723 215.06131952 137.53825592 213.65283203 137.52148438 C211.50568661 137.50005675 209.36188603 137.52130912 207.21484375 137.546875 C205.8411385 137.54423156 204.46743533 137.53910625 203.09375 137.53125 C201.23266602 137.52448242 201.23266602 137.52448242 199.33398438 137.51757812 C195.43216833 136.91184804 193.78203238 135.74613519 191 133 C189.36256707 129.72513415 189.83457947 126.09897645 189.82299805 122.4987793 C189.81642685 121.61894379 189.80985565 120.73910828 189.80308533 119.83261108 C189.78333121 116.91314616 189.77168526 113.99373272 189.76171875 111.07421875 C189.75764322 110.07833048 189.7535677 109.08244221 189.74936867 108.0563755 C189.72849927 102.78571402 189.71420111 97.51507865 189.70483398 92.24438477 C189.69376553 86.79667658 189.65936298 81.34937642 189.61966228 75.90181255 C189.59353407 71.7162245 189.58514554 67.53073423 189.58155251 63.34507179 C189.57667701 61.33680273 189.56503574 59.32853831 189.54651451 57.32034874 C189.52220305 54.50970377 189.52307342 51.70012192 189.5300293 48.8894043 C189.51081421 47.64470619 189.51081421 47.64470619 189.49121094 46.37486267 C189.52720582 42.38509457 189.71900225 40.44828245 191.89070129 36.98371887 C194.30087674 34.71703635 195.24101217 34.3426322 198.5 34.4375 C199.62921875 34.43556641 199.62921875 34.43556641 200.78125 34.43359375 C203.9366575 35.23911151 205.01385855 36.41688067 207 39 C207.37421307 41.76649871 207.50754576 44.12834634 207.45410156 46.88964844 C207.45468567 47.68027176 207.45526978 48.47089508 207.45587158 49.28547668 C207.45308899 51.89389233 207.42198983 54.50115947 207.390625 57.109375 C207.38316321 58.91969173 207.37746998 60.73001654 207.37347412 62.54034424 C207.35821288 67.30151735 207.31892691 72.06220116 207.2746582 76.82318115 C207.23371603 81.68283469 207.21546536 86.5425674 207.1953125 91.40234375 C207.15243309 100.93511063 207.08417585 110.4675146 207 120 C207.92280762 119.9685791 207.92280762 119.9685791 208.86425781 119.93652344 C211.65933809 119.85322983 214.45415715 119.80129987 217.25 119.75 C218.21808594 119.71648437 219.18617188 119.68296875 220.18359375 119.6484375 C221.58544922 119.62910156 221.58544922 119.62910156 223.015625 119.609375 C223.87446289 119.58842773 224.73330078 119.56748047 225.61816406 119.54589844 C228.76305704 120.14547828 229.95889295 121.61182212 232 124 C232.02334775 108.5361429 232.04098842 93.07228712 232.05181217 77.60841656 C232.05697113 70.42847289 232.06400624 63.24854016 232.07543945 56.06860352 C232.08539848 49.81146465 232.09185634 43.55433372 232.09408849 37.29718715 C232.09539352 33.98328178 232.09898838 30.66940441 232.10573006 27.35550499 C232.11295428 23.65845756 232.11399035 19.96145761 232.11352539 16.2644043 C232.11712067 15.16245224 232.12071594 14.06050018 232.12442017 12.92515564 C232.12235817 11.41704315 232.12235817 11.41704315 232.12025452 9.87846375 C232.12117631 9.0036822 232.1220981 8.12890066 232.12304783 7.22761059 C232.08851591 4.82650904 232.08851591 4.82650904 231 2 C154.77 1.67 78.54 1.34 0 1 C0 0.67 0 0.34 0 0 Z " fill="#F6BE06" transform="translate(245,324)"/>
<path d="M0 0 C1.85334961 -0.03577148 1.85334961 -0.03577148 3.74414062 -0.07226562 C13.74133158 -0.05608021 13.74133158 -0.05608021 17.50390625 2.87890625 C19.6875 5.5625 19.6875 5.5625 20.3125 9.0625 C19.58255851 13.15017235 18.63800949 14.6767667 15.6875 17.5625 C12.66650391 18.15844727 12.66650391 18.15844727 9.1640625 18.12890625 C7.895625 18.13986328 6.6271875 18.15082031 5.3203125 18.16210938 C3.98435495 18.1521371 2.64841338 18.13974625 1.3125 18.125 C-1.29942646 18.10835537 -3.91153357 18.10903883 -6.5234375 18.12890625 C-7.68149902 18.11802979 -8.83956055 18.10715332 -10.03271484 18.09594727 C-14.04596684 18.6668364 -16.16865264 20.04759264 -19.3125 22.5625 C-22.16110866 26.83541299 -22.03735019 30.55090137 -21.3125 35.5625 C-19.27910084 39.35817843 -18.18536326 40.9691504 -14.10546875 42.26171875 C-11.51605178 42.7714465 -8.92110444 43.163805 -6.3125 43.5625 C2.93869705 45.58576331 10.32234207 49.51476311 15.6875 57.5625 C16.05875 58.078125 16.43 58.59375 16.8125 59.125 C20.89390985 65.70060476 20.67871647 73.0902528 19.6875 80.5625 C16.85532981 89.53448439 11.84422902 96.13788775 3.62329102 100.71069336 C-3.39200293 103.8493754 -9.98173974 104.2125388 -17.60961914 104.13891602 C-19.6404556 104.12489328 -21.6668053 104.15941579 -23.69726562 104.19726562 C-24.98955078 104.19533203 -26.28183594 104.19339844 -27.61328125 104.19140625 C-29.36378784 104.1924939 -29.36378784 104.1924939 -31.1496582 104.19360352 C-35.22409964 103.38060227 -36.7187198 101.73260945 -39.3125 98.5625 C-40.21988141 95.53601665 -39.77683133 93.8128193 -39.3125 90.5625 C-37.13062372 87.59048731 -35.96571454 86.66681162 -32.29150391 86.08007812 C-31.13569824 86.08458984 -29.97989258 86.08910156 -28.7890625 86.09375 C-27.520625 86.07957031 -26.2521875 86.06539063 -24.9453125 86.05078125 C-23.60937029 86.05241603 -22.27342902 86.05634215 -20.9375 86.0625 C-18.32551136 86.07018232 -15.71339991 86.06038815 -13.1015625 86.03125 C-11.36447021 86.03801758 -11.36447021 86.03801758 -9.59228516 86.04492188 C-5.60414875 85.45830899 -3.44524442 84.05214388 -0.3125 81.5625 C2.01027854 77.65600882 2.15873693 74.03925079 1.6875 69.5625 C0.01422951 66.27793199 -1.28575729 64.19666461 -4.4375 62.25 C-7.04900348 61.62551004 -9.33227801 61.41699355 -12 61.25 C-20.17801753 60.55425821 -27.00617746 56.8052324 -32.3125 50.5625 C-33.01375 49.799375 -33.715 49.03625 -34.4375 48.25 C-40.00045721 40.276428 -40.34841357 32.0667556 -39.3125 22.5625 C-37.17076974 14.85434038 -32.06021405 8.77292648 -25.3125 4.5625 C-16.96347461 0.50782761 -9.17876354 -0.08269156 0 0 Z " fill="#040300" transform="translate(304.3125,357.4375)"/>
<path d="M0 0 C20.42000248 6.44509153 45.38329307 16.7053543 56.06713867 36.52929688 C59.26445415 43.87994111 58.55339358 52.01698168 58.49609375 59.87890625 C58.49624897 61.61807821 58.49774178 63.35725051 58.50050354 65.09642029 C58.50188269 68.72841827 58.48940978 72.36001902 58.46655273 75.99194336 C58.43814828 80.63093053 58.44091768 85.26925959 58.45364285 89.90829563 C58.46062024 93.49527032 58.45278763 97.08209473 58.44038582 100.66905022 C58.43589282 102.3789506 58.43551557 104.08886724 58.43945122 105.798769 C58.44238437 108.19373406 58.4257584 110.58781336 58.40405273 112.98266602 C58.40855438 113.67847275 58.41305603 114.37427948 58.41769409 115.09117126 C58.26954086 125.00395552 53.57479 131.95155446 47 139 C34.62396463 150.88896421 15.7712376 160.64575248 -1 164 C1.32070881 161.19763465 4.15496609 159.75954718 7.34423828 158.09545898 C20.92625101 150.98763404 33.46916866 140.92445891 39.16186523 126.2331543 C41.00153995 119.13650058 40.56991306 111.72199373 40.53125 104.4375 C40.53394988 102.63728629 40.53783641 100.837074 40.54284668 99.03686523 C40.54871843 95.27801525 40.54025425 91.51954747 40.52148438 87.76074219 C40.49869613 82.96605498 40.51183177 78.17226367 40.53577423 73.37760925 C40.5502954 69.66444263 40.54559742 65.95148502 40.53526306 62.23831177 C40.53261319 60.47144461 40.5358036 58.70455788 40.54518127 56.93771362 C40.597525 44.30668417 39.66796678 34.89622898 31.3671875 24.7890625 C30 23 30 23 29.0703125 20.8984375 C27.71698916 18.49801727 26.48390142 18.10650692 24 17 C22.7082771 16.00573142 21.43914479 14.98177169 20.1875 13.9375 C15.36679462 10.09549488 10.2017251 7.01342986 4.87768555 3.93334961 C3.23783346 2.97915871 1.61684029 1.99268455 0 1 C0 0.67 0 0.34 0 0 Z " fill="#0276BA" transform="translate(249,29)"/>
<path d="M0 0 C0.7528125 -0.00128906 1.505625 -0.00257813 2.28125 -0.00390625 C5.4366575 0.80161151 6.51385855 1.97938067 8.5 4.5625 C8.87421307 7.32899871 9.00754576 9.69084634 8.95410156 12.45214844 C8.95468567 13.24277176 8.95526978 14.03339508 8.95587158 14.84797668 C8.95308899 17.45639233 8.92198983 20.06365947 8.890625 22.671875 C8.88316321 24.48219173 8.87746998 26.29251654 8.87347412 28.10284424 C8.85821288 32.86401735 8.81892691 37.62470116 8.7746582 42.38568115 C8.73371603 47.24533469 8.71546536 52.1050674 8.6953125 56.96484375 C8.65243309 66.49761063 8.58417585 76.0300146 8.5 85.5625 C9.10996826 85.53631592 9.71993652 85.51013184 10.34838867 85.4831543 C13.12782758 85.37884281 15.90685439 85.31407018 18.6875 85.25 C19.64720703 85.20810547 20.60691406 85.16621094 21.59570312 85.12304688 C28.75749183 84.9991405 28.75749183 84.9991405 32.64794922 87.95092773 C34.52931184 90.60383256 35.13740287 91.48184578 34.625 94.625 C34.54507813 95.27597656 34.46515625 95.92695313 34.3828125 96.59765625 C33.04175012 99.58241014 31.21403896 100.76728826 28.5 102.5625 C25.16601562 103.08007812 25.16601562 103.08007812 21.40625 103.09375 C20.73710571 103.0975769 20.06796143 103.10140381 19.37854004 103.10534668 C17.96995531 103.10805723 16.56131952 103.10075592 15.15283203 103.08398438 C13.00568661 103.06255675 10.86188603 103.08380912 8.71484375 103.109375 C7.3411385 103.10673156 5.96743533 103.10160625 4.59375 103.09375 C2.73266602 103.08698242 2.73266602 103.08698242 0.83398438 103.08007812 C-3.06783167 102.47434804 -4.71796762 101.30863519 -7.5 98.5625 C-9.13743293 95.28763415 -8.66542053 91.66147645 -8.67700195 88.0612793 C-8.68357315 87.18144379 -8.69014435 86.30160828 -8.69691467 85.39511108 C-8.71666879 82.47564616 -8.72831474 79.55623272 -8.73828125 76.63671875 C-8.74235678 75.64083048 -8.7464323 74.64494221 -8.75063133 73.6188755 C-8.77150073 68.34821402 -8.78579889 63.07757865 -8.79516602 57.80688477 C-8.80623447 52.35917658 -8.84063702 46.91187642 -8.88033772 41.46431255 C-8.90646593 37.2787245 -8.91485446 33.09323423 -8.91844749 28.90757179 C-8.92332299 26.89930273 -8.93496426 24.89103831 -8.95348549 22.88284874 C-8.97779695 20.07220377 -8.97692658 17.26262192 -8.9699707 14.4519043 C-8.98278076 13.62210556 -8.99559082 12.79230682 -9.00878906 11.93736267 C-8.97279418 7.94759457 -8.78099775 6.01078245 -6.60929871 2.54621887 C-4.19912326 0.27953635 -3.25898783 -0.0948678 0 0 Z " fill="#030300" transform="translate(443.5,358.4375)"/>
<path d="M0 0 C4.59450978 2.71919966 7.44143957 5.57512866 9.16577148 10.73535156 C9.7915643 14.04187263 9.72779332 17.31663852 9.703125 20.66796875 C9.70171005 21.39477844 9.7002951 22.12158813 9.69883728 22.87042236 C9.69325667 25.18318869 9.68070779 27.49585687 9.66796875 29.80859375 C9.66295124 31.38020693 9.65838877 32.95182164 9.65429688 34.5234375 C9.6432936 38.36852718 9.62604236 42.21354385 9.60546875 46.05859375 C8.67992187 45.40890625 7.754375 44.75921875 6.80078125 44.08984375 C3.25195449 41.83386586 1.71554507 41.34379787 -2.39453125 42.05859375 C-5.6296612 44.18696872 -6.27970561 45.51578163 -7.08203125 49.30859375 C-6.22086539 54.00586207 -4.27780515 55.89849953 -0.92578125 59.1640625 C0.60546875 61.05859375 0.60546875 61.05859375 0.60546875 65.05859375 C-4.11105216 67.34539177 -8.41911636 68.08940228 -13.48046875 66.3359375 C-18.85540869 63.86826061 -22.15439765 61.04040617 -24.47509766 55.46044922 C-25.61765547 51.233046 -25.71862188 47.36275022 -25.73046875 43.00390625 C-25.73712555 42.14352753 -25.74378235 41.2831488 -25.75064087 40.396698 C-25.76073028 38.58300909 -25.76545904 36.76928334 -25.76513672 34.95556641 C-25.76950696 32.19891442 -25.80585669 29.44386894 -25.84375 26.6875 C-25.84961977 24.91797417 -25.85358809 23.14844081 -25.85546875 21.37890625 C-25.86983978 20.56406769 -25.88421082 19.74922913 -25.89901733 18.90969849 C-25.85388994 13.1829507 -24.59391351 8.84846718 -21.39453125 4.05859375 C-15.56959127 -1.48220281 -7.60185644 -2.98865808 0 0 Z " fill="#F8D500" transform="translate(383.39453125,376.94140625)"/>
<path d="M0 0 C0.66 0 1.32 0 2 0 C2.12757048 6.51020197 2.21467172 13.02007749 2.2746582 19.53125 C2.29968484 21.74263555 2.3337169 23.95393937 2.37719727 26.16503906 C2.43837176 29.35762791 2.46632914 32.54911613 2.48828125 35.7421875 C2.51408768 36.71864227 2.5398941 37.69509705 2.56648254 38.70114136 C2.57016569 47.87080507 -0.88367777 55.47682367 -7.08984375 62.22265625 C-21.19443443 75.34655964 -39.25155581 84.69122079 -58 89 C-55.53812396 86.16511243 -52.95839558 84.91735895 -49.5625 83.375 C-36.59817818 77.04979214 -25.23873001 68.16115646 -19 55 C-18.48260254 53.96987793 -17.96520508 52.93975586 -17.43212891 51.87841797 C-15.65151461 47.69072726 -15.73833294 44.02248817 -15.9453125 39.5390625 C-15.97176396 37.91671301 -15.99510508 36.29431036 -16.015625 34.671875 C-16.06076936 32.14575375 -16.12493612 29.62636364 -16.24316406 27.10253906 C-16.83954364 13.34282644 -16.83954364 13.34282644 -13.70251465 9.34753418 C-10.18860044 6.17529143 -6.20413802 4.11541439 -2 2 C-1.34 1.34 -0.68 0.68 0 0 Z " fill="#0276BA" transform="translate(305,181)"/>
<path d="M0 0 C0 16.83 0 33.66 0 51 C-13 54 -13 54 -17 54 C-17 37.17 -17 20.34 -17 3 C-4 0 -4 0 0 0 Z " fill="#0275B8" transform="translate(222,370)"/>
<path d="M0 0 C0.33 0 0.66 0 1 0 C1 16.5 1 33 1 50 C-4.61 50 -10.22 50 -16 50 C-16.30043999 44.74358411 -16.5580031 39.51723863 -16.71411133 34.2590332 C-16.77915339 32.47642886 -16.86763464 30.69450944 -16.98071289 28.91430664 C-17.87398535 14.48047876 -17.87398535 14.48047876 -14.73040771 10.31951904 C-11.2292942 7.11062808 -7.20733905 5.13060364 -3 3 C-1.21779251 1.40214228 -1.21779251 1.40214228 0 0 Z " fill="#0277BC" transform="translate(306,257)"/>
<path d="M0 0 C1.63001953 0.02707031 1.63001953 0.02707031 3.29296875 0.0546875 C4.54013672 0.08949219 4.54013672 0.08949219 5.8125 0.125 C4.80338542 1.78515625 3.79427083 3.4453125 2.78515625 5.10546875 C0.80024699 9.22674622 0.65807098 13.56980852 0.49609375 18.08203125 C0.45419922 19.19384766 0.41230469 20.30566406 0.36914062 21.45117188 C0.32982422 22.60166016 0.29050781 23.75214844 0.25 24.9375 C0.20681641 26.10732422 0.16363281 27.27714844 0.11914062 28.48242188 C0.01331721 31.36317031 -0.08876825 34.24400123 -0.1875 37.125 C-1.89448282 37.46518163 -3.60317133 37.7968089 -5.3125 38.125 C-6.26382813 38.310625 -7.21515625 38.49625 -8.1953125 38.6875 C-11.23708796 39.13225046 -14.11807393 39.19786471 -17.1875 39.125 C-17.27488991 34.75012669 -17.328024 30.37547922 -17.375 26 C-17.40013672 24.7625 -17.42527344 23.525 -17.45117188 22.25 C-17.46083984 21.05117188 -17.47050781 19.85234375 -17.48046875 18.6171875 C-17.4961792 17.51745605 -17.51188965 16.41772461 -17.52807617 15.28466797 C-17.00078467 10.3927636 -15.32987831 7.15314048 -11.6875 3.875 C-7.32705398 0.82268779 -5.33768163 -0.11478885 0 0 Z " fill="#0276B9" transform="translate(222.1875,315.875)"/>
</svg>
